#!OML:ASF F:\VICON\USERDATA\INSTALL\rory3\rory3.ASF
:FULLY-SPECIFIED
:DEGREES
79
root -0.29254 15.1335 -24.1763 24.2057 -3.28765 0.545198
lowerback -0.0868323 -0.226568 -1.27151
upperback -4.18803 -0.343769 -0.232943
thorax -4.25699 -0.131044 0.484446
lowerneck -16.9974 -3.01227 -5.62237
upperneck 8.07172 -3.63789 6.96796
head 5.42655 -1.44729 2.76705
rclavicle -1.71452e-015 1.49089e-015
rhumerus -46.0643 7.83613 -86.1931
rradius 64.8393
rwrist 13.118
rhand -26.8163 -54.6961
rfingers 7.12502
rthumb -0.242624 275.324
lclavicle -1.71452e-015 1.49089e-015
lhumerus -31.5302 -17.2119 83.9278
lradius 57.5754
lwrist 0.881586
lhand -34.815 -43.7627
lfingers 7.12502
lthumb -7.96619 -13.9328
rfemur -72.0992 1.2223 17.9578
rtibia 95.3522
rfoot -14.1704 -21.3504
rtoes -7.29391
lfemur -35.629 -2.21307 -28.1585
ltibia 61.2739
lfoot -42.4009 14.5036
ltoes -6.75784
80
root -0.310398 15.1487 -23.7967 24.319 -3.36815 0.336464
lowerback -0.673917 -0.454836 -1.19382
upperback -4.50019 -0.635192 -0.0163269
thorax -4.24264 -0.274427 0.670932
lowerneck -15.4793 -2.6411 -5.62126
upperneck 7.87568 -3.18138 6.80824
head 5.08629 -1.26569 2.76725
rclavicle 8.32411e-015 6.55989e-015
rhumerus -48.2432 7.62534 -86.1436
rradius 65.9561
rwrist 12.8777
rhand -27.3277 -52.6608
rfingers 7.12502
rthumb -0.736577 277.361
lclavicle 8.32411e-015 6.55989e-015
lhumerus -30.651 -17.2199 84.1451
lradius 58.4796
lwrist 0.23598
lhand -35.443 -43.6367
lfingers 7.12502
lthumb -8.57228 -13.8308
rfemur -74.0033 1.5175 18.1951
rtibia 92.7909
rfoot -14.1192 -21.109
rtoes -8.88305
lfemur -33.0943 -2.23314 -27.9344
ltibia 59.3539
lfoot -42.224 15.1645
ltoes -8.74336
81
root -0.331376 15.172 -23.4133 24.3822 -3.56683 0.236517
lowerback -0.901153 -0.641051 -1.33744
upperback -4.74803 -0.88009 0.174783
thorax -4.36298 -0.385748 0.954712
lowerneck -14.9808 -2.31526 -5.39944
upperneck 8.07061 -2.77235 6.40745
head 5.02967 -1.09366 2.64408
rclavicle 1.06101e-014 -9.24349e-015
rhumerus -50.103 7.35014 -85.9521
rradius 67.1616
rwrist 12.6233
rhand -27.3688 -51.4768
rfingers 7.12502
rthumb -0.776266 278.545
lclavicle 1.06101e-014 -9.24349e-015
lhumerus -29.4811 -17.2383 84.3047
lradius 59.3549
lwrist -0.387882
lhand -36.082 -43.9805
lfingers 7.12502
lthumb -9.18894 -14.2007
rfemur -75.6125 1.90657 18.2726
rtibia 89.8398
rfoot -14.1574 -20.658
rtoes -15.9899
lfemur -30.499 -2.30983 -27.8302
ltibia 57.2476
lfoot -41.6221 15.6681
ltoes -13.1517
82
root -0.348387 15.208 -23.0149 24.6504 -3.71142 -0.123575
lowerback -1.14749 -0.955303 -1.17308
upperback -5.02124 -1.28439 0.570762
thorax -4.49308 -0.583992 1.28142
lowerneck -15.2795 -1.85134 -5.29951
upperneck 8.57257 -2.11246 5.89019
head 5.18648 -0.796546 2.52446
rclavicle -1.3418e-015 -6.55989e-015
rhumerus -51.4143 7.76622 -85.8085
rradius 68.2704
rwrist 11.984
rhand -26.8919 -52.369
rfingers 7.12502
rthumb -0.315666 277.651
lclavicle -1.3418e-015 -6.55989e-015
lhumerus -28.2745 -16.6952 84.408
lradius 60.4902
lwrist -0.303448
lhand -36.0728 -44.2539
lfingers 7.12502
lthumb -9.18007 -14.4737
rfemur -76.9401 2.3463 18.5691
rtibia 86.4627
rfoot -15.3342 -19.3543
rtoes -11.354
lfemur -28.0123 -2.54612 -27.423
ltibia 54.9441
lfoot -40.9335 15.3379
ltoes -14.4371
83
root -0.367701 15.2324 -22.6129 25.1555 -4.00717 -0.694323
lowerback -1.98711 -1.06846 -0.871795
upperback -5.43747 -1.4163 0.901236
thorax -4.44782 -0.654465 1.44547
lowerneck -14.4807 -1.41044 -5.01864
upperneck 8.6935 -1.56125 5.44296
head 5.05506 -0.56001 2.38706
rclavicle -4.19933e-015 1.19271e-015
rhumerus -52.9543 7.85984 -85.6833
rradius 69.1211
rwrist 11.569
rhand -26.6098 -52.3907
rfingers 7.12502
rthumb -0.0431823 277.63
lclavicle -4.19933e-015 1.19271e-015
lhumerus -27.4606 -16.8506 84.7003
lradius 61.6244
lwrist 0.00960892
lhand -36.5318 -43.8321
lfingers 7.12502
lthumb -9.62296 -14.0718
rfemur -78.153 2.96593 18.9628
rtibia 82.9165
rfoot -16.7255 -17.5702
rtoes -8.48479
lfemur -25.8093 -2.75476 -26.8763
ltibia 52.7643
lfoot -40.0869 14.6066
ltoes -14.1131
84
root -0.393719 15.3088 -22.1917 25.1574 -3.69239 -0.703934
lowerback -2.23865 -1.47857 -1.01142
upperback -5.81398 -1.95541 1.24314
thorax -4.6687 -0.907148 1.88688
lowerneck -13.7934 -0.94249 -4.81284
upperneck 9.07253 -0.952877 4.94851
head 5.02317 -0.297682 2.25061
rclavicle 3.42904e-015 7.7526e-015
rhumerus -54.5819 8.21676 -85.5196
rradius 69.7944
rwrist 11.4875
rhand -27.1941 -50.2018
rfingers 7.12502
rthumb -0.607593 279.819
lclavicle 3.42904e-015 7.7526e-015
lhumerus -26.9751 -16.9986 85.183
lradius 62.8132
lwrist 0.659965
lhand -36.9589 -42.6643
lfingers 7.12502
lthumb -10.035 -12.9235
rfemur -78.7981 2.87768 19.2099
rtibia 79.0948
rfoot -16.1166 -17.1433
rtoes -11.9816
lfemur -22.9826 -3.5411 -26.5937
ltibia 50.4288
lfoot -38.5811 14.1042
ltoes -15.5655
85
root -0.423387 15.3317 -21.7884 25.5107 -3.74374 -0.676174
lowerback -2.59532 -1.73866 -1.32485
upperback -5.89097 -2.29519 1.5099
thorax -4.51304 -1.05912 2.33264
lowerneck -15.3357 -0.614479 -4.43497
upperneck 10.2785 -0.483601 4.38119
head 5.62844 -0.0781644 2.06264
rclavicle 4.72114e-015 -1.49089e-015
rhumerus -55.2011 8.44242 -85.2409
rradius 70.4018
rwrist 11.3205
rhand -28.8424 -47.2637
rfingers 7.12502
rthumb -2.19947 282.768
lclavicle 4.72114e-015 -1.49089e-015
lhumerus -25.6382 -17.3121 85.4272
lradius 63.9513
lwrist 1.39374
lhand -37.1976 -41.0758
lfingers 7.12502
lthumb -10.2653 -11.3463
rfemur -79.7507 3.06416 19.2101
rtibia 75.4331
rfoot -16.6603 -15.7679
rtoes -12.865
lfemur -20.8633 -4.07195 -26.5298
ltibia 48.4288
lfoot -36.7327 13.4494
ltoes -18.5643
86
root -0.449157 15.3722 -21.3688 25.8741 -3.77959 -0.997366
lowerback -3.34247 -2.189 -1.25053
upperback -6.38494 -2.87845 2.03326
thorax -4.56073 -1.33998 2.82137
lowerneck -14.1425 0.0482003 -4.31103
upperneck 10.3191 0.413052 3.8081
head 5.40363 0.309191 1.93454
rclavicle 1.97123e-014 -3.93842e-015
rhumerus -56.9357 9.62326 -85.2455
rradius 71.5822
rwrist 10.2997
rhand -28.6596 -47.5976
rfingers 7.12502
rthumb -2.023 282.432
lclavicle 1.97123e-014 -3.93842e-015
lhumerus -25.8037 -16.9284 85.9085
lradius 65.2895
lwrist 2.23611
lhand -37.3654 -40.8199
lfingers 7.12502
lthumb -10.4272 -11.0985
rfemur -80.2482 3.37482 19.5606
rtibia 71.673
rfoot -15.5153 -14.7879
rtoes -17.5877
lfemur -18.7251 -4.61483 -26.1154
ltibia 46.4974
lfoot -34.814 11.691
ltoes -19.4638
87
root -0.470359 15.4373 -20.9283 26.011 -3.55282 -1.52812
lowerback -3.88423 -2.44774 -0.707198
upperback -6.44881 -3.21653 2.40564
thorax -4.31147 -1.52918 2.8795
lowerneck -14.6956 0.451383 -3.69074
upperneck 10.7823 0.945355 3.06125
head 5.62519 0.540008 1.65152
rclavicle -2.10525e-014 -1.34677e-014
rhumerus -57.7876 10.1291 -85.1323
rradius 72.2079
rwrist 10.2936
rhand -27.7863 -47.846
rfingers 7.12502
rthumb -1.17956 282.178
lclavicle -2.10525e-014 -1.34677e-014
lhumerus -25.1463 -17.1554 86.1404
lradius 66.8702
lwrist 4.00623
lhand -37.1903 -42.2525
lfingers 7.12502
lthumb -10.2583 -12.5226
rfemur -80.1158 3.5285 20.2672
rtibia 68.1
rfoot -14.3346 -13.5567
rtoes -18.7639
lfemur -16.4611 -5.26707 -25.4258
ltibia 44.8912
lfoot -32.4429 9.76719
ltoes -19.5428
88
root -0.489788 15.4959 -20.4853 25.8071 -3.45395 -1.90558
lowerback -4.23157 -2.73141 -0.316496
upperback -6.40658 -3.59395 2.76745
thorax -4.0529 -1.73155 3.01281
lowerneck -15.0602 0.883767 -3.33025
upperneck 11.348 1.54295 2.4696
head 5.85118 0.798554 1.46737
rclavicle 4.49005e-014 7.7526e-015
rhumerus -58.3473 10.9175 -85.0365
rradius 72.3401
rwrist 10.7943
rhand -28.4331 -46.2299
rfingers 7.12502
rthumb -1.80416 283.798
lclavicle 4.49005e-014 7.7526e-015
lhumerus -24.6758 -17.2873 86.4612
lradius 68.5386
lwrist 5.648
lhand -37.4138 -43.5726
lfingers 7.12502
lthumb -10.4738 -13.8536
rfemur -79.4793 3.66486 20.7762
rtibia 64.9345
rfoot -13.592 -11.5694
rtoes -19.4883
lfemur -14.0314 -5.73352 -25.0789
ltibia 43.472
lfoot -29.2077 8.46027
ltoes -22.7633
89
root -0.508904 15.5457 -20.0447 25.4915 -3.63599 -2.2846
lowerback -4.55535 -2.90779 -0.00100624
upperback -6.23793 -3.83454 3.06242
thorax -3.68262 -1.86455 3.11272
lowerneck -15.5564 1.269 -2.8555
upperneck 11.8278 2.07246 1.79443
head 6.08289 1.02019 1.23447
rclavicle 4.77083e-015 -8.44835e-015
rhumerus -58.6532 11.6625 -84.9347
rradius 72.5194
rwrist 11.1888
rhand -29.3088 -44.8702
rfingers 7.12502
rthumb -2.64996 285.166
lclavicle 4.77083e-015 -8.44835e-015
lhumerus -23.954 -17.8461 86.6408
lradius 69.8523
lwrist 7.25474
lhand -37.7023 -44.3562
lfingers 7.12502
lthumb -10.7521 -14.6514
rfemur -78.6443 3.9619 21.2312
rtibia 62.182
rfoot -12.3919 -9.54998
rtoes -21.7327
lfemur -11.842 -5.75354 -24.9406
ltibia 42.5513
lfoot -25.41 7.20822
ltoes -26.6633
90
root -0.525043 15.6278 -19.5824 24.3855 -2.61992 -2.30418
lowerback -4.30303 -3.58678 0.534636
upperback -6.28734 -4.73937 3.37569
thorax -3.84669 -2.33252 3.14352
lowerneck -14.1114 1.72512 -2.62408
upperneck 11.5952 2.68959 1.17322
head 5.7652 1.28036 1.037
rclavicle 2.98177e-016 1.31198e-014
rhumerus -59.7535 12.8564 -85.0939
rradius 72.6014
rwrist 11.7737
rhand -29.4789 -43.7643
rfingers 7.12502
rthumb -2.81421 286.275
lclavicle 2.98177e-016 1.31198e-014
lhumerus -24.3766 -18.2239 87.074
lradius 71.1355
lwrist 8.95922
lhand -38.0163 -45.3181
lfingers 7.12502
lthumb -11.055 -15.6292
rfemur -76.7995 3.27228 21.7873
rtibia 59.924
rfoot -11.1422 -8.77861
rtoes -24.3544
lfemur -9.2477 -6.3286 -24.5967
ltibia 42.1634
lfoot -20.936 5.25151
ltoes -26.7571
91
root -0.539343 15.6893 -19.1477 23.9351 -2.7415 -2.78637
lowerback -3.92915 -3.50256 1.23329
upperback -5.8971 -4.63115 3.4972
thorax -3.69815 -2.30444 2.88988
lowerneck -16.6059 1.80128 -2.20726
upperneck 12.7564 2.84417 0.709483
head 6.56378 1.3231 0.879739
rclavicle -7.06928e-014 8.94531e-015
rhumerus -59.1736 13.0101 -84.8357
rradius 72.5644
rwrist 12.4775
rhand -28.7001 -44.3003
rfingers 7.12502
rthumb -2.06209 285.73
lclavicle -7.06928e-014 8.94531e-015
lhumerus -23.0018 -19.535 87.1347
lradius 72.0989
lwrist 10.7609
lhand -38.6111 -46.4803
lfingers 7.12502
lthumb -11.6286 -16.8229
rfemur -75.632 3.50427 22.5809
rtibia 58.2921
rfoot -10.739 -8.0427
rtoes -26.1655
lfemur -8.05433 -5.36962 -24.1563
ltibia 42.5705
lfoot -15.5321 3.20064
ltoes -22.0664
92
root -0.559328 15.737 -18.7146 23.5527 -3.00693 -3.11031
lowerback -4.03588 -3.72241 1.61802
upperback -6.36294 -4.91255 3.84333
thorax -4.12069 -2.45254 3.05157
lowerneck -14.4395 2.2214 -2.49039
upperneck 12.4137 3.45361 0.461278
head 6.08067 1.59038 0.872003
rclavicle -3.32964e-015 -3.77691e-015
rhumerus -60.5941 14.3443 -85.0503
rradius 73.0829
rwrist 12.8739
rhand -25.5106 -48.3319
rfingers 7.12502
rthumb 1.01847 281.691
lclavicle -3.32964e-015 -3.77691e-015
lhumerus -23.8334 -20.093 87.9059
lradius 72.9163
lwrist 12.6896
lhand -39.1451 -46.9492
lfingers 7.12502
lthumb -12.1436 -17.3217
rfemur -74.5446 3.81209 23.1825
rtibia 57.1963
rfoot -10.6587 -7.73293
rtoes -26.357
lfemur -7.35353 -3.9971 -23.8029
ltibia 43.5267
lfoot -10.3392 1.73608
ltoes -18.8503
